<?xml version="1.0" encoding="utf-8"?>
<!-- Generator: Adobe Illustrator 23.0.3, SVG Export Plug-In . SVG Version: 6.00 Build 0)  -->
<svg version="1.1" id="Layer_1" xmlns="http://www.w3.org/2000/svg" xmlns:xlink="http://www.w3.org/1999/xlink" x="0px" y="0px"
	 viewBox="0 0 48 48" style="enable-background:new 0 0 48 48;" xml:space="preserve">
<style type="text/css">
	.st0{fill:#FFFFFF;}
</style>
<circle cx="24" cy="24" r="24"/>
<path class="st0" d="M36,24c0-6.6-5.4-12-12-12s-12,5.4-12,12c0,6,4.4,11,10.1,11.9v-8.4h-3V24h3v-2.6c0-3,1.8-4.7,4.5-4.7
	c1.3,0,2.7,0.2,2.7,0.2v3h-1.5c-1.5,0-2,0.9-2,1.9V24h3.3l-0.5,3.5h-2.8v8.4C31.6,35,36,30,36,24L36,24z"/>
</svg>
