<svg width="16" height="16" viewBox="0 0 30 30" fill="none" xmlns="http://www.w3.org/2000/svg">
<path d="M8.72625 5.625C9.59062 5.625 10.3894 5.69063 11.1225 5.8875C11.8538 6.01875 12.4556 6.2925 12.99 6.62062C13.5262 6.95062 13.9219 7.41937 14.1919 8.02125C14.4544 8.62125 14.5969 9.35438 14.5969 10.1531C14.5969 11.0831 14.3981 11.8819 13.9294 12.4819C13.5262 13.0819 12.8681 13.6181 12.06 14.0138C13.1962 14.3438 14.0606 14.9438 14.5875 15.7425C15.1144 16.5413 15.4519 17.5369 15.4519 18.6731C15.4519 19.6031 15.255 20.4019 14.9175 21.0694C14.5808 21.7412 14.0756 22.3143 13.4513 22.7325C12.8512 23.1356 12.1181 23.4638 11.3194 23.6625C10.5369 23.8691 9.73229 23.9799 8.92312 23.9925L0 24.0056V5.625H8.72625ZM8.19187 13.0838C8.92313 13.0838 9.52313 12.8869 9.98625 12.5494C10.4475 12.2119 10.6519 11.6175 10.6519 10.8863C10.6519 10.4813 10.5863 10.0875 10.455 9.82312C10.3129 9.55518 10.1068 9.32652 9.855 9.1575C9.583 9.00919 9.29226 8.89819 8.99063 8.8275C8.66063 8.76188 8.32312 8.76187 7.9275 8.76187H4.06875V13.0931C4.06875 13.0838 8.19375 13.0838 8.19375 13.0838H8.19187ZM8.38875 20.9456C8.79187 20.9456 9.1875 20.88 9.525 20.8144C9.855 20.7488 10.1925 20.6156 10.455 20.4094C10.7175 20.2031 10.9237 20.0063 11.1225 19.6781C11.2537 19.3481 11.385 18.945 11.385 18.4763C11.385 17.5463 11.1225 16.8788 10.5863 16.41C10.0519 16.0069 9.31875 15.81 8.45437 15.81H4.06875V20.9363H8.39062V20.9456H8.38875ZM21.2475 20.88C21.7838 21.4144 22.5806 21.6788 23.6437 21.6788C24.375 21.6788 25.0425 21.48 25.5788 21.1425C26.1131 20.7394 26.4412 20.3438 26.5725 19.9425H29.835C29.2987 21.5381 28.5 22.6744 27.4387 23.4075C26.3775 24.0731 25.1081 24.4688 23.5763 24.4688C22.5967 24.4731 21.6252 24.2918 20.7131 23.9344C19.8923 23.6292 19.1598 23.1255 18.5812 22.4681C17.9641 21.8552 17.5058 21.1008 17.2463 20.2706C16.9181 19.4063 16.7775 18.4763 16.7775 17.4056C16.7775 16.41 16.9088 15.4706 17.2463 14.6063C17.5837 13.7438 18.045 13.0088 18.6469 12.3431C19.2469 11.7431 19.98 11.2069 20.7787 10.8769C21.6694 10.5223 22.6195 10.3409 23.5781 10.3425C24.7144 10.3425 25.71 10.5394 26.5744 11.0081C27.4369 11.4769 28.1062 12.0056 28.6406 12.8044C29.175 13.5356 29.5706 14.4 29.8425 15.3319C29.9738 16.2619 30.0394 17.1994 29.9738 18.2625H20.3175C20.3175 19.35 20.7113 20.3438 21.2475 20.88ZM25.4475 13.8825C24.9787 13.4138 24.2437 13.1494 23.3794 13.1494C22.7794 13.1494 22.3181 13.2806 21.915 13.4794C21.5119 13.6763 21.2475 13.9481 20.985 14.2106C20.7399 14.468 20.5768 14.7923 20.5163 15.1425C20.4488 15.4706 20.385 15.7425 20.385 16.005H26.3775C26.2463 15.0188 25.9088 14.3513 25.4456 13.8825H25.4475ZM19.5844 6.8925H27.0431V8.68688H19.5844V6.8925Z" fill="white"/>
</svg>
