<svg width="124" height="21" viewBox="0 0 124 21" fill="none" xmlns="http://www.w3.org/2000/svg">
<g clip-path="url(#clip0_34_350)">
<path d="M0 15.1824L3.2337 1.83464H8.65489L9.51087 11.3115L15.0272 1.80127H20.6196L17.3478 15.149H13.7908L16.2826 5.00472L10.2527 15.1824H7.22826L6.16304 4.50418L3.57609 15.1824H0Z" fill="white"/>
<path d="M23.9864 15.4161C23.421 15.4184 22.8622 15.3101 22.3505 15.0991C21.8458 14.9054 21.4115 14.5937 21.0951 14.1981C20.7686 13.7944 20.6016 13.308 20.6195 12.8133C20.5835 12.1429 20.8423 11.4859 21.3423 10.978C21.875 10.4832 22.5241 10.096 23.2445 9.84342C24.1017 9.56115 24.9868 9.34891 25.8885 9.2094C26.8396 9.05924 27.7907 8.94244 28.7038 8.8757C28.7038 8.67549 28.7989 8.50864 28.8179 8.39185C28.8264 8.29188 28.8264 8.19149 28.8179 8.09153C28.853 7.94521 28.8453 7.79347 28.7954 7.65049C28.7455 7.50752 28.655 7.37798 28.5326 7.27398C28.1695 7.08979 27.7529 7.00279 27.3342 7.02371C26.856 7.02016 26.3847 7.12352 25.9646 7.32403C25.5303 7.50656 25.1858 7.8206 24.9945 8.20832L22.3315 7.29066C22.8663 6.53758 23.6306 5.93074 24.538 5.53877C25.5394 5.15856 26.6239 4.97628 27.7146 5.00486C28.5188 4.99315 29.3184 5.11193 30.0733 5.35524C30.7208 5.56315 31.288 5.92757 31.7092 6.40637C32.1046 6.89271 32.3113 7.47762 32.2989 8.07484C32.293 8.41161 32.2484 8.74701 32.1657 9.07592C32.1657 9.47635 31.9945 9.87678 31.8804 10.2605C31.7663 10.6443 31.6902 10.9947 31.6331 11.2783C31.576 11.5619 31.4429 12.1626 31.3478 12.6631C31.2527 13.1637 31.1956 13.6141 31.1576 14.0479C31.1195 14.4818 31.1576 14.8488 31.1576 15.1491H27.8097L27.6956 13.9645C27.263 14.4491 26.7013 14.833 26.0597 15.0824C25.3991 15.3083 24.6954 15.4216 23.9864 15.4161V15.4161ZM25.7744 13.3472C26.3632 13.3621 26.9357 13.1767 27.3722 12.83C27.967 12.3052 28.3709 11.6375 28.5326 10.9112V10.6776C27.4835 10.7273 26.4469 10.9013 25.451 11.1949C24.6902 11.4618 24.3097 11.8623 24.3097 12.4129C24.3037 12.5512 24.3413 12.6883 24.4186 12.809C24.4958 12.9297 24.6095 13.0294 24.7472 13.0969C25.0554 13.2645 25.4118 13.3514 25.7744 13.3472Z" fill="white"/>
<path d="M32.6794 18.3523H30.4348L31.0055 16.0164H32.337C32.6859 16.029 33.0344 15.9837 33.3642 15.883C33.4864 15.8392 33.5968 15.7735 33.6885 15.6902C33.7802 15.6069 33.8511 15.5078 33.8968 15.3991C34.0439 15.0762 34.1523 14.7407 34.2201 14.398L36.4457 5.23815H40.0027L37.7582 14.715C37.6125 15.3913 37.3829 16.0515 37.0734 16.6838C36.8701 17.1169 36.5503 17.5005 36.1413 17.8017C35.733 18.067 35.2558 18.239 34.7527 18.3022C34.0644 18.3699 33.3709 18.3867 32.6794 18.3523V18.3523ZM39.0707 3.53631C38.8011 3.5375 38.5341 3.4908 38.2856 3.39905C38.0371 3.30729 37.8124 3.17236 37.625 3.0024C37.4266 2.84115 37.2697 2.64464 37.1647 2.42598C37.0598 2.20732 37.0092 1.97154 37.0163 1.73437C37.0135 1.49525 37.066 1.25812 37.1706 1.0373C37.2752 0.816486 37.4298 0.616572 37.625 0.449648C37.8171 0.290634 38.0449 0.168457 38.2938 0.0908969C38.5427 0.0133371 38.8073 -0.0179045 39.0707 -0.000838098C39.3419 -0.0054922 39.6115 0.0379175 39.8631 0.126791C40.1148 0.215665 40.3434 0.348176 40.5354 0.516387C40.7328 0.681006 40.8876 0.8809 40.9893 1.10255C41.0911 1.32419 41.1373 1.56242 41.125 1.80111C41.1346 2.03703 41.087 2.27205 40.9853 2.49063C40.8837 2.70922 40.7303 2.9064 40.5354 3.06914C40.3444 3.23959 40.1163 3.37468 39.8648 3.46639C39.6132 3.5581 39.3431 3.60457 39.0707 3.60305V3.53631Z" fill="white"/>
<path d="M52.2907 15.4161C51.3017 15.4234 50.3267 15.2111 49.4565 14.7987C48.5765 14.3638 47.852 13.7225 47.3641 12.9468C46.8115 12.0454 46.5361 11.0333 46.5652 10.0103C46.5491 8.87422 46.7616 7.7446 47.1929 6.67332C47.6171 5.68085 48.2639 4.7731 49.0951 4.00377C49.8769 3.23874 50.837 2.62993 51.9103 2.21852C53.0404 1.79302 54.2566 1.57171 55.4864 1.56781C56.7153 1.5425 57.9338 1.77112 59.0434 2.2352C60.087 2.70947 60.8934 3.50594 61.307 4.47094L57.9402 5.6055C57.7221 5.19736 57.3714 4.85488 56.932 4.62111C56.3629 4.30887 55.7008 4.15207 55.0299 4.17062C54.3588 4.16926 53.7004 4.33096 53.1277 4.63779C52.5516 4.96192 52.0592 5.38817 51.682 5.88914C51.2921 6.43141 50.9971 7.02195 50.807 7.64103C50.6175 8.28408 50.5216 8.94562 50.5217 9.60982C50.4281 10.4813 50.7287 11.3502 51.3587 12.0291C51.6777 12.3002 52.0566 12.5111 52.472 12.6488C52.8875 12.7866 53.3308 12.8482 53.7744 12.83C54.3009 12.8278 54.8227 12.7431 55.3152 12.5797C55.8257 12.4147 56.2919 12.1591 56.6847 11.8289C57.0771 11.4757 57.3418 11.0288 57.4456 10.5442V10.1771H54.0217L54.6304 7.60766H61.7445L59.8423 15.1825H57.5027L57.3695 13.6976C56.7053 14.2775 55.9107 14.7297 55.0363 15.0256C54.1619 15.3215 53.2269 15.4544 52.2907 15.4161V15.4161Z" fill="white"/>
<path d="M66.462 15.4153C65.8966 15.4176 65.3378 15.3093 64.8261 15.0983C64.3214 14.9046 63.8871 14.5929 63.5707 14.1973C63.2442 13.7936 63.0772 13.3073 63.0951 12.8125C63.0686 12.1433 63.3262 11.4893 63.818 10.9772C64.3506 10.4824 64.9997 10.0953 65.7201 9.84264C66.6151 9.55661 67.5384 9.34435 68.4783 9.20862C69.4294 9.05846 70.3805 8.94167 71.2935 8.87493C71.2935 8.67471 71.3886 8.50787 71.4076 8.39107C71.4161 8.2911 71.4161 8.19072 71.4076 8.09075C71.4295 7.9322 71.4001 7.77144 71.3227 7.62686C71.2454 7.48229 71.1232 7.35973 70.9701 7.2732C70.6071 7.08901 70.1905 7.00202 69.7718 7.02293C69.2936 7.01938 68.8222 7.12274 68.4022 7.32325C67.9727 7.51165 67.6302 7.82387 67.4321 8.20754L64.6739 7.28989C65.2087 6.5368 65.973 5.92997 66.8805 5.538C67.9233 5.14225 69.0551 4.95968 70.1902 5.00409C70.9944 4.99237 71.794 5.11116 72.5489 5.35447C73.1995 5.55733 73.7681 5.92272 74.1848 6.4056C74.5802 6.89194 74.7869 7.47685 74.7745 8.07406C74.767 8.4099 74.7288 8.74466 74.6603 9.07514L74.375 10.2598C74.2609 10.6602 74.1848 10.9939 74.1087 11.2775C74.0326 11.5612 73.9185 12.1618 73.8234 12.6623C73.7283 13.1629 73.6902 13.6134 73.6332 14.0472C73.5761 14.481 73.6332 14.848 73.6332 15.1484H70.3805L70.2663 13.9637C69.8378 14.4519 69.2749 14.8365 68.6305 15.0816C67.9401 15.3182 67.2029 15.4317 66.462 15.4153V15.4153ZM68.25 13.3464C68.844 13.3588 69.4214 13.1741 69.8669 12.8292C70.413 12.2878 70.7754 11.6232 70.9131 10.9105V10.6769C69.8701 10.7255 68.8396 10.8996 67.8506 11.1941C67.0707 11.4611 66.6902 11.8615 66.6902 12.4121C66.6883 12.5498 66.7277 12.6855 66.8045 12.8055C66.8813 12.9256 66.9928 13.0258 67.1277 13.0961C67.4631 13.2798 67.8554 13.3673 68.25 13.3464Z" fill="white"/>
<path d="M75.1738 18.3522H72.8912L73.4809 15.983H74.8695C75.2245 15.9938 75.5789 15.9485 75.9157 15.8495C76.153 15.754 76.3376 15.58 76.4293 15.3656C76.5752 15.0409 76.6897 14.7061 76.7717 14.3645L78.9782 5.20467H82.5353L80.2336 14.7149C80.0931 15.3903 79.8699 16.0504 79.5679 16.6837C79.3511 17.1145 79.0259 17.4967 78.6168 17.8016C78.2084 18.0669 77.7312 18.2389 77.2282 18.3021C76.5462 18.3692 75.859 18.3859 75.1738 18.3522V18.3522ZM81.5652 3.5362C81.2927 3.53772 81.0227 3.49125 80.7711 3.39954C80.5195 3.30783 80.2914 3.17274 80.1005 3.00229C79.9055 2.83955 79.7521 2.64237 79.6505 2.42378C79.5488 2.2052 79.5012 1.97018 79.5108 1.73426C79.4985 1.49557 79.5448 1.25734 79.6465 1.0357C79.7482 0.814051 79.903 0.614157 80.1005 0.449537C80.2986 0.293299 80.53 0.173045 80.7814 0.0957227C81.0328 0.0184007 81.2992 -0.0144562 81.5652 -0.000949143C81.8341 -0.00935031 82.1021 0.0324091 82.3513 0.12157C82.6005 0.21073 82.8253 0.345262 83.0108 0.516275C83.206 0.6832 83.3606 0.883114 83.4652 1.10393C83.5698 1.32475 83.6223 1.56188 83.6195 1.80099C83.6267 2.03816 83.5761 2.27395 83.4711 2.49261C83.3661 2.71127 83.2092 2.90778 83.0108 3.06903C82.8234 3.23899 82.5987 3.37392 82.3502 3.46567C82.1018 3.55743 81.8347 3.60412 81.5652 3.60294V3.5362Z" fill="white"/>
<path d="M89.0027 15.4324C88.3632 15.429 87.7257 15.3675 87.1006 15.2489C86.3851 15.1249 85.7057 14.8752 85.1033 14.5148C84.4233 14.0989 83.8948 13.5195 83.5815 12.8463L86.5489 11.9787C86.5985 12.1911 86.7057 12.3899 86.8613 12.5583C87.0169 12.7267 87.2164 12.8598 87.443 12.9464C87.9044 13.1457 88.4123 13.2485 88.9267 13.2467C89.3726 13.258 89.8155 13.1781 90.2201 13.0131C90.6006 12.8463 90.7908 12.6461 90.7908 12.3958C90.7871 12.2702 90.742 12.1482 90.661 12.0446C90.58 11.941 90.4665 11.8601 90.3343 11.8118C89.9602 11.6387 89.5644 11.5044 89.1549 11.4114L87.6522 11.011C87.1235 10.8697 86.6134 10.6796 86.1305 10.4437C85.6575 10.2198 85.253 9.89933 84.9511 9.50937C84.6285 9.06732 84.4691 8.5488 84.4946 8.02443C84.4909 7.45373 84.7127 6.89952 85.1223 6.45607C85.5952 5.97396 86.1963 5.60148 86.8723 5.37157C87.6796 5.10363 88.5395 4.97887 89.4022 5.00451C90.4287 4.99224 91.4485 5.15076 92.4076 5.47168C93.3342 5.79011 94.107 6.3795 94.5951 7.14014L91.5897 8.04112C91.5218 7.87534 91.4108 7.72571 91.2655 7.60408C91.1203 7.48244 90.9447 7.39216 90.7527 7.34036C90.2998 7.20578 89.8231 7.14361 89.3451 7.15683C88.9406 7.13253 88.5368 7.2138 88.1848 7.39041C88.0847 7.4438 88 7.51676 87.9373 7.60358C87.8746 7.6904 87.8356 7.78875 87.8234 7.89095C87.8268 8.02086 87.8712 8.14739 87.9518 8.25641C88.0325 8.36542 88.1461 8.45263 88.2799 8.50829C88.6475 8.69739 89.0449 8.83794 89.4593 8.9254L91.019 9.29247C91.5492 9.42425 92.0648 9.59735 92.5598 9.80969C93.0289 10.0082 93.4391 10.2995 93.7582 10.6606C94.0725 11.0561 94.2326 11.5302 94.2147 12.0121C94.2326 12.4921 94.1153 12.9686 93.8731 13.3993C93.6309 13.83 93.2713 14.2017 92.8261 14.4814C91.7114 15.1695 90.3633 15.5048 89.0027 15.4324V15.4324ZM90.3723 3.75316C90.1367 3.75594 89.9034 3.71243 89.6894 3.62582C89.4755 3.53921 89.2863 3.41169 89.1359 3.25262L86.5299 0.766602H89.1549L90.4294 1.98458L92.3316 0.766602H95.6794L91.3044 3.50289C91.0373 3.68627 90.7112 3.79133 90.3723 3.80321V3.75316Z" fill="white"/>
<path d="M101.671 15.4155C100.293 15.4826 98.9364 15.0958 97.8667 14.331C97.3976 13.934 97.0322 13.4524 96.7957 12.9195C96.5593 12.3866 96.4574 11.8151 96.4972 11.2443C96.4911 10.4057 96.6654 9.57368 97.0107 8.79169C97.3344 8.0459 97.8261 7.36497 98.4564 6.78953C99.08 6.2127 99.8307 5.75293 100.663 5.43808C101.544 5.12646 102.49 4.97874 103.44 5.00428C104.13 4.95968 104.823 5.03876 105.477 5.23668C106.131 5.4346 106.733 5.74722 107.244 6.15552C107.698 6.56118 108.05 7.04498 108.279 7.57629C108.509 8.10761 108.61 8.67487 108.576 9.24218C108.54 9.50008 108.489 9.75623 108.424 10.0097C108.385 10.3191 108.321 10.6257 108.234 10.9273H99.9591C99.9513 10.9995 99.9513 11.0721 99.9591 11.1442C99.9498 11.2107 99.9498 11.278 99.9591 11.3444C99.9402 11.5931 99.9972 11.8417 100.124 12.0645C100.251 12.2874 100.444 12.4766 100.682 12.6125C101.171 12.8664 101.731 12.9936 102.299 12.9795C102.751 12.9853 103.202 12.9232 103.63 12.796C103.994 12.7038 104.331 12.5445 104.619 12.3288L107.206 13.2131C106.568 13.9263 105.747 14.4978 104.81 14.8816C103.821 15.2607 102.749 15.443 101.671 15.4155V15.4155ZM100.282 9.19212H105.456C105.466 9.1424 105.466 9.09169 105.456 9.04196V8.90849C105.478 8.66332 105.433 8.41714 105.323 8.19066C105.214 7.96418 105.045 7.76404 104.829 7.60708C104.389 7.32335 103.853 7.17656 103.307 7.18997C102.63 7.18832 101.969 7.36249 101.405 7.69051C100.828 8.04863 100.427 8.58515 100.282 9.19212V9.19212Z" fill="white"/>
<path d="M109.812 15.1822L113.065 1.83447H116.584L114.929 8.6585L119.152 5.32157H123.641L118.106 9.50942L121.416 15.1822H117.611L115.519 11.4949L113.978 12.6962L113.37 15.1822H109.812Z" fill="white"/>
</g>
<defs>
<clipPath id="clip0_34_350">
<rect width="123.679" height="21" fill="white"/>
</clipPath>
</defs>
</svg>
